<?xml version="1.0" encoding="utf-8"?>
<!-- Generator: Adobe Illustrator 21.0.2, SVG Export Plug-In . SVG Version: 6.00 Build 0)  -->
<svg version="1.1" id="Layer_1" xmlns="http://www.w3.org/2000/svg" xmlns:xlink="http://www.w3.org/1999/xlink" x="0px" y="0px"
	 viewBox="0 0 253 23.5" style="enable-background:new 0 0 253 23.5;" xml:space="preserve">
<style type="text/css">
	.st0{fill:#B7B7B7;}
	.st1{fill:#4C4C4C;}
	.st2{fill:#828282;}
</style>
<g>
	<rect x="149.1" y="17.7" class="st0" width="31" height="5.3"/>
	<rect x="149.1" y="1.1" class="st0" width="31" height="5.4"/>
	<rect x="149.1" y="7.2" class="st0" width="30.9" height="10.1"/>
	<g>
		<rect x="153.8" y="8.2" class="st1" width="7.1" height="7.7"/>
		<polygon class="st1" points="175.6,15.9 165.4,15.9 160.8,11.6 165.4,8.2 175.6,8.2 170.2,11.7 		"/>
	</g>
	<g>
		<path class="st1" d="M162.2,5.5V3.2h-0.8v1h-0.5v-1h-1.1v1h-8.6V3.8l0.9-1.4h-1.4l-0.9,1.7v0.3l1.1,1.2h11.4L162.2,5.5L162.2,5.5z
			"/>
		<polygon class="st1" points="174.6,1.6 178.2,1.6 178.9,2.4 175.9,2.4 175.9,2.9 178.9,2.9 179.6,3.4 179.6,3.8 178.9,4.6 
			173.9,4.6 173.4,4.2 172.9,4.2 172.9,5.9 167.1,5.9 167.1,2.6 171.2,2.6 171.2,3.8 168.6,3.8 168.6,5 171.9,5 171.9,2.6 
			173.4,2.6 174.8,3.8 178.2,3.8 178.2,3.4 178.1,3.2 175.2,3.2 174.6,2.6 		"/>
		<rect x="163.4" y="3.8" class="st1" width="2.2" height="0.9"/>
		<rect x="161.1" y="2.4" class="st1" width="1.1" height="0.5"/>
		<rect x="152.4" y="2.4" class="st1" width="1.1" height="0.5"/>
		<rect x="154.1" y="2.4" class="st1" width="1.1" height="0.5"/>
		<rect x="173.4" y="5.4" class="st1" width="1.1" height="0.5"/>
		<rect x="174.8" y="5.4" class="st1" width="1.1" height="0.5"/>
	</g>
	<g>
		<g>
			<path class="st1" d="M152.4,19.8c0-0.5,0-0.7,0-1h0.7v0.7l0,0c0.1-0.5,0.7-0.7,1.4-0.7c0.5,0,1.4,0.3,1.4,1.6v2.3h-0.7v-2.2
				c0-0.6-0.1-1.1-1-1.1c-0.5,0-0.9,0.3-1,0.7c0,0.1-0.1,0.1-0.1,0.3v2.3h-0.5L152.4,19.8L152.4,19.8z"/>
		</g>
		<g>
			<path class="st1" d="M163.4,20.8c0,0.9,0.7,1.2,1.4,1.2c0.5,0,0.9-0.1,1.1-0.1l0.1,0.5c-0.3,0.1-0.7,0.1-1.4,0.1
				c-1.2,0-2-0.8-2-1.8c0-1.2,0.7-2,1.8-2c1.4,0,1.7,1.1,1.7,1.8c0,0.1,0,0.3,0,0.3H163.4L163.4,20.8L163.4,20.8z M165.6,20.3
				c0-0.5-0.1-1.1-1-1.1c-0.8,0-1.1,0.7-1.2,1.1H165.6z"/>
		</g>
		<g>
			<path class="st1" d="M175.6,18.1v1h1.1v0.3h-1.1v1.8c0,0.5,0.1,0.7,0.6,0.7c0.1,0,0.3,0,0.5,0v0.5c-0.1,0.1-0.5,0.1-0.7,0.1
				c-0.5,0-0.6-0.1-0.8-0.3c-0.2-0.2-0.3-0.5-0.3-0.9v-1.8h-0.6V19h0.6v-0.9C174.8,18.1,175.6,18.1,175.6,18.1z"/>
		</g>
	</g>
</g>
<circle class="st0" cx="100.4" cy="12.1" r="11.2"/>
<path class="st2" d="M110.1,18.3c0-0.2,0.2-0.4,0.4-0.4s0.4,0.2,0.4,0.4s-0.2,0.4-0.4,0.4C110.1,18.7,110.1,18.5,110.1,18.3z
	 M110.4,18.6c0.2,0,0.3-0.1,0.3-0.3c0-0.2-0.1-0.3-0.3-0.3s-0.3,0.1-0.3,0.3C110.1,18.5,110.2,18.6,110.4,18.6z M110.4,18.5
	L110.4,18.5l-0.1-0.3h0.1h0.1c0,0,0,0,0,0.1C110.5,18.3,110.5,18.4,110.4,18.5h0.1H110.4L110.4,18.5l-0.1-0.1v0.1H110.4z
	 M110.4,18.3L110.4,18.3L110.4,18.3c0.1,0,0.1,0,0.1,0C110.4,18.2,110.4,18.2,110.4,18.3C110.4,18.2,110.4,18.2,110.4,18.3
	L110.4,18.3L110.4,18.3z"/>
<circle class="st0" cx="85.2" cy="12.1" r="11.2"/>
<g>
	<g>
		<polygon class="st1" points="79.8,14.4 78.6,14.4 79.2,10.1 77.8,14.4 76.8,14.4 76.8,10.1 76.1,14.4 74.9,14.4 75.8,8.8 
			77.7,8.8 77.7,12.2 78.8,8.8 80.8,8.8 		"/>
		<path class="st1" d="M82.8,12.4c-0.1,0-0.2,0-0.3,0c-0.7,0-1,0.2-1,0.7c0,0.3,0.2,0.5,0.4,0.5C82.3,13.5,82.8,13,82.8,12.4z
			 M83.7,14.4c-0.2,0-1,0-1,0v-0.5c-0.3,0.4-0.7,0.6-1.3,0.6c-0.7,0-1.1-0.5-1.1-1.3c0-1.1,0.8-1.8,2.1-1.8c0.1,0,0.3,0,0.5,0
			c0-0.2,0-0.2,0-0.3c0-0.3-0.2-0.4-0.8-0.4c-0.6,0-1.1,0.1-1.3,0.2c0-0.1,0.2-1,0.2-1c0.6-0.2,1-0.2,1.4-0.2c1,0,1.6,0.5,1.6,1.3
			c0,0.2,0,0.5-0.1,0.9C83.8,12.6,83.7,14,83.7,14.4z"/>
		<path class="st1" d="M99.8,8.9l-0.2,1.2c-0.4-0.2-0.7-0.3-1.1-0.3c-0.9,0-1.5,0.9-1.5,2.1c0,0.9,0.4,1.4,1.1,1.4
			c0.3,0,0.6-0.1,1-0.3l-0.2,1.3c-0.4,0.1-0.7,0.2-1.1,0.2c-1.3,0-2.1-0.9-2.1-2.4c0-2,1.1-3.4,2.7-3.4C98.9,8.6,99.6,8.8,99.8,8.9z
			"/>
		<path class="st1" d="M101.8,12.4c-0.1,0-0.2,0-0.3,0c-0.7,0-1,0.2-1,0.7c0,0.3,0.2,0.5,0.4,0.5C101.4,13.5,101.8,13,101.8,12.4z
			 M102.6,14.4c-0.2,0-1,0-1,0v-0.5c-0.3,0.4-0.7,0.6-1.3,0.6c-0.7,0-1.1-0.5-1.1-1.3c0-1.1,0.8-1.8,2.1-1.8c0.1,0,0.3,0,0.5,0
			c0-0.2,0-0.2,0-0.3c0-0.3-0.2-0.4-0.8-0.4s-1.1,0.1-1.3,0.2c0-0.1,0.2-1,0.2-1c0.6-0.2,1-0.2,1.4-0.2c1,0,1.6,0.5,1.6,1.3
			c0,0.2,0,0.5-0.1,0.9C102.9,12.6,102.6,14,102.6,14.4z"/>
		<path class="st1" d="M88.9,14.3c-0.3,0.1-0.6,0.1-0.9,0.1c-0.6,0-1-0.4-1-1c0-0.2,0.1-0.7,0.2-1.2c0.1-0.4,0.5-3.1,0.5-3.1h1.2
			l-0.1,0.7h0.6l-0.2,1.1h-0.5c-0.1,0.9-0.3,2-0.3,2.1c0,0.2,0.1,0.3,0.4,0.3c0.1,0,0.2,0,0.3,0L88.9,14.3z"/>
		<path class="st1" d="M92.7,14.3c-0.4,0.1-0.8,0.2-1.2,0.2c-1.3,0-2-0.7-2-2c0-1.6,0.9-2.7,2.1-2.7c1,0,1.6,0.6,1.6,1.7
			c0,0.3,0,0.7-0.1,1.1h-2.4c-0.1,0.7,0.3,0.9,1,0.9c0.4,0,0.8-0.1,1.2-0.3L92.7,14.3z M91.9,11.6c0-0.1,0.1-0.8-0.6-0.8
			c-0.4,0-0.7,0.3-0.8,0.8H91.9z"/>
		<path class="st1" d="M84.3,11.3c0,0.6,0.3,1,0.9,1.3c0.5,0.2,0.6,0.3,0.6,0.5c0,0.3-0.2,0.4-0.7,0.4c-0.4,0-0.7-0.1-1.1-0.2
			c0,0-0.2,1-0.2,1.1c0.3,0.1,0.5,0.1,1.3,0.1c1.3,0,1.9-0.5,1.9-1.5c0-0.6-0.2-1-0.8-1.3c-0.5-0.2-0.6-0.3-0.6-0.5s0.2-0.4,0.6-0.4
			c0.2,0,0.6,0,0.9,0.1l0.2-1.1c-0.3,0-0.8-0.1-1.1-0.1C84.8,9.7,84.3,10.4,84.3,11.3z"/>
		<path class="st1" d="M108.9,14.4h-1.1l0.1-0.4c-0.3,0.4-0.7,0.5-1.1,0.5c-0.9,0-1.5-0.8-1.5-1.9c0-1.5,0.9-2.8,2-2.8
			c0.5,0,0.8,0.2,1.2,0.6l0.2-1.6h1.2L108.9,14.4z M107.2,13.3c0.6,0,1-0.6,1-1.5c0-0.6-0.2-0.9-0.6-0.9c-0.5,0-0.9,0.6-0.9,1.5
			C106.6,13,106.9,13.3,107.2,13.3z"/>
		<path class="st1" d="M103.6,9.8c-0.2,1.4-0.4,2.9-0.6,4.3l-0.1,0.3h1.2c0.4-2.8,0.5-3.3,1.2-3.3c0.1-0.6,0.3-1.1,0.5-1.3
			c-0.5-0.1-0.8,0.2-1.2,0.7c0-0.2,0.1-0.5,0.1-0.7H103.6z"/>
		<path class="st1" d="M93.8,9.8c-0.2,1.4-0.4,2.9-0.6,4.3l-0.1,0.3h1.2c0.4-2.8,0.5-3.3,1.2-3.3c0.1-0.6,0.3-1.1,0.5-1.3
			c-0.5-0.1-0.8,0.2-1.2,0.7c0-0.2,0.1-0.5,0.1-0.7H93.8z"/>
		<g>
			<path class="st1" d="M109.6,14c0-0.2,0.2-0.4,0.4-0.4s0.4,0.2,0.4,0.4s-0.2,0.4-0.4,0.4C109.6,14.4,109.6,14.2,109.6,14z
				 M109.9,14.3c0.2,0,0.3-0.1,0.3-0.3s-0.1-0.3-0.3-0.3s-0.3,0.1-0.3,0.3C109.6,14.2,109.8,14.3,109.9,14.3z M109.9,14.2
				L109.9,14.2l-0.1-0.3h0.1h0.1c0,0,0,0,0,0.1C110,14,110,14.1,109.9,14.2h0.1H109.9L109.9,14.2l-0.1-0.1v0.1H109.9z M109.9,14
				L109.9,14L109.9,14c0.1,0,0.1,0,0.1,0S109.9,13.9,109.9,14C109.9,13.9,109.9,13.9,109.9,14L109.9,14L109.9,14z"/>
		</g>
	</g>
</g>
<g>
	<path class="st0" d="M253.2,5.8v17.7h-35.4V5.8H253.2z M220.8,3h29.4V0h-29.4L220.8,3L220.8,3z M225.2,8.8h-4.4v4.4h2.2V11h2.2V8.8
		z M225.2,18.5H223v-2.2h-2.2v4.4h4.4V18.5z M239.9,14.8c0-1.2-0.4-2.2-1.3-3.1s-1.9-1.3-3.1-1.3s-2.2,0.4-3.1,1.3
		c-0.9,0.9-1.3,1.9-1.3,3.1s0.4,2.3,1.3,3.1s1.9,1.3,3.1,1.3s2.2-0.4,3.1-1.3C239.5,17.1,239.9,16,239.9,14.8z M250.2,8.8h-4.4V11
		h2.2v2.2h2.2L250.2,8.8L250.2,8.8z M250.2,16.2H248v2.2h-2.2v2.2h4.4L250.2,16.2L250.2,16.2z"/>
</g>
<g>
	<rect x="1.2" y="1.2" class="st0" width="34.1" height="3"/>
	<rect x="1.2" y="19.2" class="st0" width="34.1" height="3"/>
	<path class="st0" d="M36.3,0.4V0l0,0h-0.4H0v0.4l0,0v22.7l0,0v0.4h36.3v-0.4l0,0V0.4L36.3,0.4z M36,23H0.4V0.4H36V23z"/>
	<path class="st0" d="M14.7,7.6l-3.5,8.4H9L7.3,9.3C7.2,8.9,7.1,8.7,6.8,8.5C6.2,8.2,5.4,8,4.6,7.8l0.1-0.2h3.7c0.5,0,0.9,0.3,1,0.9
		l0.9,4.8l2.3-5.7C12.5,7.6,14.7,7.6,14.7,7.6z M23.8,13.1c0-2.2-3.1-2.3-3-3.3c0-0.3,0.3-0.6,0.9-0.7c0.3,0,1.2-0.1,2.1,0.4
		l0.4-1.8c-0.5-0.2-1.2-0.4-2-0.4c-2.2,0-3.7,1.1-3.7,2.8c0,1.2,1.1,1.9,1.9,2.3c0.8,0.4,1.1,0.7,1.1,1c0,0.6-0.7,0.8-1.3,0.8
		c-1.1,0-1.7-0.3-2.2-0.5l-0.4,1.8c0.5,0.2,1.4,0.4,2.4,0.4C22.3,16,23.8,14.9,23.8,13.1 M29.5,15.8h2l-1.8-8.4h-1.9
		c-0.4,0-0.8,0.2-0.9,0.6l-3.3,7.8h2.3l0.5-1.3h2.8L29.5,15.8z M27,12.9l1.1-3.1l0.7,3.1H27z M17.9,7.6l-1.8,8.4h-2.2l1.8-8.4
		C15.7,7.6,17.9,7.6,17.9,7.6z"/>
</g>
</svg>
